<svg id="visual" viewBox="0 0 900 600" width="900" height="600" xmlns="http://www.w3.org/2000/svg" xmlns:xlink="http://www.w3.org/1999/xlink" version="1.1"><g stroke-width="1" stroke-linejoin="bevel"><path d="M387 299L400 205L305 291Z" fill="#401786" stroke="#401786"></path><path d="M400 205L308 186L305 291Z" fill="#521ea9" stroke="#521ea9"></path><path d="M308 186L208 215L305 291Z" fill="#2e1065" stroke="#2e1065"></path><path d="M284 400L388 388L305 291Z" fill="#4c1c9d" stroke="#4c1c9d"></path><path d="M305 291L388 388L387 299Z" fill="#4c1c9d" stroke="#4c1c9d"></path><path d="M513 294L514 215L400 205Z" fill="#341270" stroke="#341270"></path><path d="M400 205L390 104L308 186Z" fill="#521ea9" stroke="#521ea9"></path><path d="M308 186L208 100L208 215Z" fill="#4c1c9d" stroke="#4c1c9d"></path><path d="M390 104L303 103L308 186Z" fill="#4c1c9d" stroke="#4c1c9d"></path><path d="M513 294L400 205L387 299Z" fill="#401786" stroke="#401786"></path><path d="M400 205L511 88L390 104Z" fill="#4c1c9d" stroke="#4c1c9d"></path><path d="M184 287L284 400L305 291Z" fill="#401786" stroke="#401786"></path><path d="M388 388L513 294L387 299Z" fill="#521ea9" stroke="#521ea9"></path><path d="M208 215L184 287L305 291Z" fill="#5921b5" stroke="#5921b5"></path><path d="M288 0L208 100L303 103Z" fill="#5f23c1" stroke="#5f23c1"></path><path d="M303 103L208 100L308 186Z" fill="#521ea9" stroke="#521ea9"></path><path d="M86 190L87 297L184 287Z" fill="#6d28d9" stroke="#6d28d9"></path><path d="M388 388L492 415L513 294Z" fill="#461a91" stroke="#461a91"></path><path d="M402 508L492 415L388 388Z" fill="#6626cd" stroke="#6626cd"></path><path d="M184 287L188 400L284 400Z" fill="#2e1065" stroke="#2e1065"></path><path d="M307 511L402 508L388 388Z" fill="#5f23c1" stroke="#5f23c1"></path><path d="M514 215L511 88L400 205Z" fill="#5f23c1" stroke="#5f23c1"></path><path d="M390 104L405 0L303 103Z" fill="#341270" stroke="#341270"></path><path d="M511 88L405 0L390 104Z" fill="#521ea9" stroke="#521ea9"></path><path d="M405 0L288 0L303 103Z" fill="#3a157b" stroke="#3a157b"></path><path d="M513 294L603 215L514 215Z" fill="#6d28d9" stroke="#6d28d9"></path><path d="M514 215L601 86L511 88Z" fill="#6626cd" stroke="#6626cd"></path><path d="M611 306L603 215L513 294Z" fill="#6626cd" stroke="#6626cd"></path><path d="M307 511L388 388L284 400Z" fill="#6626cd" stroke="#6626cd"></path><path d="M591 415L611 306L513 294Z" fill="#461a91" stroke="#461a91"></path><path d="M591 415L513 294L492 415Z" fill="#401786" stroke="#401786"></path><path d="M210 507L307 511L284 400Z" fill="#341270" stroke="#341270"></path><path d="M86 190L184 287L208 215Z" fill="#401786" stroke="#401786"></path><path d="M184 287L105 387L188 400Z" fill="#5921b5" stroke="#5921b5"></path><path d="M88 94L86 190L208 100Z" fill="#461a91" stroke="#461a91"></path><path d="M208 100L86 190L208 215Z" fill="#6626cd" stroke="#6626cd"></path><path d="M87 297L105 387L184 287Z" fill="#521ea9" stroke="#521ea9"></path><path d="M188 400L210 507L284 400Z" fill="#341270" stroke="#341270"></path><path d="M288 0L208 0L208 100Z" fill="#461a91" stroke="#461a91"></path><path d="M503 504L591 415L492 415Z" fill="#3a157b" stroke="#3a157b"></path><path d="M601 86L513 0L511 88Z" fill="#6626cd" stroke="#6626cd"></path><path d="M511 88L513 0L405 0Z" fill="#4c1c9d" stroke="#4c1c9d"></path><path d="M106 489L210 507L188 400Z" fill="#5921b5" stroke="#5921b5"></path><path d="M603 215L601 86L514 215Z" fill="#4c1c9d" stroke="#4c1c9d"></path><path d="M698 189L601 86L603 215Z" fill="#521ea9" stroke="#521ea9"></path><path d="M402 508L503 504L492 415Z" fill="#5f23c1" stroke="#5f23c1"></path><path d="M208 0L88 94L208 100Z" fill="#6626cd" stroke="#6626cd"></path><path d="M105 387L106 489L188 400Z" fill="#6d28d9" stroke="#6d28d9"></path><path d="M0 401L106 489L105 387Z" fill="#6626cd" stroke="#6626cd"></path><path d="M503 504L592 494L591 415Z" fill="#5f23c1" stroke="#5f23c1"></path><path d="M709 294L603 215L611 306Z" fill="#461a91" stroke="#461a91"></path><path d="M709 294L611 306L696 392Z" fill="#521ea9" stroke="#521ea9"></path><path d="M709 294L698 189L603 215Z" fill="#3a157b" stroke="#3a157b"></path><path d="M695 0L603 0L601 86Z" fill="#521ea9" stroke="#521ea9"></path><path d="M601 86L603 0L513 0Z" fill="#401786" stroke="#401786"></path><path d="M0 85L0 199L86 190Z" fill="#4c1c9d" stroke="#4c1c9d"></path><path d="M86 190L0 199L87 297Z" fill="#5f23c1" stroke="#5f23c1"></path><path d="M87 297L0 313L105 387Z" fill="#3a157b" stroke="#3a157b"></path><path d="M307 511L386 600L402 508Z" fill="#461a91" stroke="#461a91"></path><path d="M402 508L495 600L503 504Z" fill="#2e1065" stroke="#2e1065"></path><path d="M503 504L495 600L592 494Z" fill="#401786" stroke="#401786"></path><path d="M302 600L386 600L307 511Z" fill="#4c1c9d" stroke="#4c1c9d"></path><path d="M302 600L307 511L210 507Z" fill="#6d28d9" stroke="#6d28d9"></path><path d="M0 199L0 313L87 297Z" fill="#5921b5" stroke="#5921b5"></path><path d="M208 0L92 0L88 94Z" fill="#461a91" stroke="#461a91"></path><path d="M88 94L0 85L86 190Z" fill="#521ea9" stroke="#521ea9"></path><path d="M196 600L302 600L210 507Z" fill="#5921b5" stroke="#5921b5"></path><path d="M696 392L611 306L591 415Z" fill="#4c1c9d" stroke="#4c1c9d"></path><path d="M704 487L696 392L591 415Z" fill="#5921b5" stroke="#5921b5"></path><path d="M386 600L495 600L402 508Z" fill="#5f23c1" stroke="#5f23c1"></path><path d="M592 494L704 487L591 415Z" fill="#461a91" stroke="#461a91"></path><path d="M0 313L0 401L105 387Z" fill="#341270" stroke="#341270"></path><path d="M92 0L0 85L88 94Z" fill="#3a157b" stroke="#3a157b"></path><path d="M86 600L196 600L106 489Z" fill="#6626cd" stroke="#6626cd"></path><path d="M106 489L196 600L210 507Z" fill="#461a91" stroke="#461a91"></path><path d="M698 189L711 102L601 86Z" fill="#461a91" stroke="#461a91"></path><path d="M785 186L711 102L698 189Z" fill="#6d28d9" stroke="#6d28d9"></path><path d="M711 102L695 0L601 86Z" fill="#461a91" stroke="#461a91"></path><path d="M614 600L704 487L592 494Z" fill="#521ea9" stroke="#521ea9"></path><path d="M811 298L785 186L709 294Z" fill="#461a91" stroke="#461a91"></path><path d="M92 0L0 0L0 85Z" fill="#521ea9" stroke="#521ea9"></path><path d="M0 401L0 509L106 489Z" fill="#341270" stroke="#341270"></path><path d="M811 298L709 294L808 387Z" fill="#5f23c1" stroke="#5f23c1"></path><path d="M709 294L785 186L698 189Z" fill="#461a91" stroke="#461a91"></path><path d="M711 102L784 0L695 0Z" fill="#341270" stroke="#341270"></path><path d="M495 600L614 600L592 494Z" fill="#521ea9" stroke="#521ea9"></path><path d="M0 509L86 600L106 489Z" fill="#5f23c1" stroke="#5f23c1"></path><path d="M808 387L709 294L696 392Z" fill="#6626cd" stroke="#6626cd"></path><path d="M900 194L797 110L785 186Z" fill="#341270" stroke="#341270"></path><path d="M785 186L797 110L711 102Z" fill="#6d28d9" stroke="#6d28d9"></path><path d="M793 484L696 392L704 487Z" fill="#341270" stroke="#341270"></path><path d="M793 484L808 387L696 392Z" fill="#2e1065" stroke="#2e1065"></path><path d="M797 110L784 0L711 102Z" fill="#4c1c9d" stroke="#4c1c9d"></path><path d="M0 509L0 600L86 600Z" fill="#3a157b" stroke="#3a157b"></path><path d="M711 600L793 484L704 487Z" fill="#2e1065" stroke="#2e1065"></path><path d="M614 600L711 600L704 487Z" fill="#2e1065" stroke="#2e1065"></path><path d="M900 305L900 194L811 298Z" fill="#401786" stroke="#401786"></path><path d="M811 298L900 194L785 186Z" fill="#5921b5" stroke="#5921b5"></path><path d="M797 110L900 95L784 0Z" fill="#6626cd" stroke="#6626cd"></path><path d="M900 305L811 298L808 387Z" fill="#6d28d9" stroke="#6d28d9"></path><path d="M900 397L900 305L808 387Z" fill="#6626cd" stroke="#6626cd"></path><path d="M711 600L791 600L793 484Z" fill="#4c1c9d" stroke="#4c1c9d"></path><path d="M900 486L900 397L808 387Z" fill="#6626cd" stroke="#6626cd"></path><path d="M900 486L808 387L793 484Z" fill="#341270" stroke="#341270"></path><path d="M900 194L900 95L797 110Z" fill="#2e1065" stroke="#2e1065"></path><path d="M791 600L900 486L793 484Z" fill="#6d28d9" stroke="#6d28d9"></path><path d="M900 95L900 0L784 0Z" fill="#5f23c1" stroke="#5f23c1"></path><path d="M791 600L900 600L900 486Z" fill="#4c1c9d" stroke="#4c1c9d"></path></g></svg>